<?xml version="1.0" standalone="no"?><svg xmlns="http://www.w3.org/2000/svg" viewBox="0 0 1440 320"><path fill="#00bfdc" fill-opacity="1" d="M0,192L30,181.3C60,171,120,149,180,128C240,107,300,85,360,90.7C420,96,480,128,540,133.3C600,139,660,117,720,128C780,139,840,181,900,202.7C960,224,1020,224,1080,208C1140,192,1200,160,1260,154.7C1320,149,1380,171,1410,181.3L1440,192L1440,0L1410,0C1380,0,1320,0,1260,0C1200,0,1140,0,1080,0C1020,0,960,0,900,0C840,0,780,0,720,0C660,0,600,0,540,0C480,0,420,0,360,0C300,0,240,0,180,0C120,0,60,0,30,0L0,0Z"></path></svg>